<?xml version="1.0" encoding="UTF-8" standalone="no"?>
<svg
   width="2967px"
   height="1750px"
   viewBox="0 0 2967 1750"
   version="1.1"
   id="svg1"
   sodipodi:docname="230824_LogoVectorized.svg"
   inkscape:version="1.3 (0e150ed, 2023-07-21)"
   xmlns:inkscape="http://www.inkscape.org/namespaces/inkscape"
   xmlns:sodipodi="http://sodipodi.sourceforge.net/DTD/sodipodi-0.dtd"
   xmlns="http://www.w3.org/2000/svg"
   xmlns:svg="http://www.w3.org/2000/svg">
  <sodipodi:namedview
     id="namedview1"
     pagecolor="#ffffff"
     bordercolor="#cccccc"
     borderopacity="1"
     inkscape:showpageshadow="0"
     inkscape:pageopacity="1"
     inkscape:pagecheckerboard="0"
     inkscape:deskcolor="#d1d1d1"
     showgrid="false"
     showguides="false"
     inkscape:zoom="0.26863899"
     inkscape:cx="1444.3175"
     inkscape:cy="878.50242"
     inkscape:window-width="1696"
     inkscape:window-height="661"
     inkscape:window-x="0"
     inkscape:window-y="473"
     inkscape:window-maximized="0"
     inkscape:current-layer="230818_LogoVectorized" />
  <!-- Generator: Sketch 47.1 (45422) - http://www.bohemiancoding.com/sketch -->
  <title
     id="title1">230818_LogoVectorized</title>
  <desc
     id="desc1">Created with Sketch.</desc>
  <defs
     id="defs1">
    <inkscape:path-effect
       effect="simplify"
       id="path-effect31"
       is_visible="false"
       lpeversion="1.3"
       threshold="1"
       steps="1"
       smooth_angles="360"
       helper_size="10"
       simplify_individual_paths="false"
       simplify_just_coalesce="false" />
    <inkscape:path-effect
       effect="simplify"
       id="path-effect30"
       is_visible="true"
       lpeversion="1.3"
       threshold="15"
       steps="1"
       smooth_angles="360"
       helper_size="10"
       simplify_individual_paths="false"
       simplify_just_coalesce="false" />
    <inkscape:path-effect
       effect="simplify"
       id="path-effect29"
       is_visible="true"
       lpeversion="1.3"
       threshold="15"
       steps="1"
       smooth_angles="360"
       helper_size="10"
       simplify_individual_paths="false"
       simplify_just_coalesce="false" />
    <inkscape:path-effect
       effect="simplify"
       id="path-effect28"
       is_visible="true"
       lpeversion="1.3"
       threshold="15"
       steps="1"
       smooth_angles="360"
       helper_size="10"
       simplify_individual_paths="false"
       simplify_just_coalesce="false" />
    <inkscape:path-effect
       effect="simplify"
       id="path-effect27"
       is_visible="true"
       lpeversion="1.3"
       threshold="15"
       steps="1"
       smooth_angles="360"
       helper_size="10"
       simplify_individual_paths="false"
       simplify_just_coalesce="false" />
    <inkscape:path-effect
       effect="simplify"
       id="path-effect26"
       is_visible="true"
       lpeversion="1.3"
       threshold="15"
       steps="1"
       smooth_angles="360"
       helper_size="10"
       simplify_individual_paths="false"
       simplify_just_coalesce="false" />
    <inkscape:path-effect
       effect="simplify"
       id="path-effect25"
       is_visible="true"
       lpeversion="1.3"
       threshold="15"
       steps="1"
       smooth_angles="360"
       helper_size="10"
       simplify_individual_paths="false"
       simplify_just_coalesce="false" />
    <inkscape:path-effect
       effect="simplify"
       id="path-effect24"
       is_visible="true"
       lpeversion="1.3"
       threshold="15"
       steps="1"
       smooth_angles="360"
       helper_size="10"
       simplify_individual_paths="false"
       simplify_just_coalesce="false" />
    <inkscape:path-effect
       effect="simplify"
       id="path-effect23"
       is_visible="true"
       lpeversion="1.3"
       threshold="15"
       steps="1"
       smooth_angles="360"
       helper_size="10"
       simplify_individual_paths="false"
       simplify_just_coalesce="false" />
    <inkscape:path-effect
       effect="simplify"
       id="path-effect22"
       is_visible="true"
       lpeversion="1.3"
       threshold="15"
       steps="1"
       smooth_angles="360"
       helper_size="10"
       simplify_individual_paths="false"
       simplify_just_coalesce="false" />
    <inkscape:path-effect
       effect="simplify"
       id="path-effect21"
       is_visible="true"
       lpeversion="1.3"
       threshold="15"
       steps="1"
       smooth_angles="360"
       helper_size="10"
       simplify_individual_paths="false"
       simplify_just_coalesce="false" />
    <inkscape:path-effect
       effect="simplify"
       id="path-effect20"
       is_visible="true"
       lpeversion="1.3"
       threshold="2.5"
       steps="1"
       smooth_angles="360"
       helper_size="10"
       simplify_individual_paths="false"
       simplify_just_coalesce="false" />
    <inkscape:path-effect
       effect="simplify"
       id="path-effect19"
       is_visible="true"
       lpeversion="1.3"
       threshold="15"
       steps="1"
       smooth_angles="360"
       helper_size="10"
       simplify_individual_paths="false"
       simplify_just_coalesce="false" />
    <inkscape:path-effect
       effect="simplify"
       id="path-effect18"
       is_visible="true"
       lpeversion="1.3"
       threshold="15"
       steps="1"
       smooth_angles="360"
       helper_size="10"
       simplify_individual_paths="false"
       simplify_just_coalesce="false" />
    <inkscape:path-effect
       effect="simplify"
       id="path-effect17"
       is_visible="true"
       lpeversion="1.3"
       threshold="30"
       steps="1"
       smooth_angles="360"
       helper_size="10"
       simplify_individual_paths="false"
       simplify_just_coalesce="false" />
    <inkscape:path-effect
       effect="simplify"
       id="path-effect16"
       is_visible="true"
       lpeversion="1.3"
       threshold="100"
       steps="1"
       smooth_angles="360"
       helper_size="10"
       simplify_individual_paths="false"
       simplify_just_coalesce="false" />
    <inkscape:path-effect
       effect="simplify"
       id="path-effect15"
       is_visible="true"
       lpeversion="1.3"
       threshold="15"
       steps="1"
       smooth_angles="360"
       helper_size="10"
       simplify_individual_paths="false"
       simplify_just_coalesce="false" />
    <inkscape:path-effect
       effect="simplify"
       id="path-effect14"
       is_visible="true"
       lpeversion="1.3"
       threshold="15"
       steps="1"
       smooth_angles="360"
       helper_size="10"
       simplify_individual_paths="false"
       simplify_just_coalesce="false" />
    <inkscape:path-effect
       effect="simplify"
       id="path-effect13"
       is_visible="true"
       lpeversion="1.3"
       threshold="15"
       steps="1"
       smooth_angles="360"
       helper_size="10"
       simplify_individual_paths="false"
       simplify_just_coalesce="false" />
    <inkscape:path-effect
       effect="simplify"
       id="path-effect12"
       is_visible="true"
       lpeversion="1.3"
       threshold="15"
       steps="1"
       smooth_angles="360"
       helper_size="10"
       simplify_individual_paths="false"
       simplify_just_coalesce="false" />
    <inkscape:path-effect
       effect="simplify"
       id="path-effect11"
       is_visible="true"
       lpeversion="1.3"
       threshold="15"
       steps="1"
       smooth_angles="360"
       helper_size="10"
       simplify_individual_paths="false"
       simplify_just_coalesce="false" />
    <inkscape:path-effect
       effect="simplify"
       id="path-effect10"
       is_visible="true"
       lpeversion="1.3"
       threshold="15"
       steps="1"
       smooth_angles="360"
       helper_size="10"
       simplify_individual_paths="false"
       simplify_just_coalesce="false" />
    <inkscape:path-effect
       effect="simplify"
       id="path-effect9"
       is_visible="true"
       lpeversion="1.3"
       threshold="15"
       steps="1"
       smooth_angles="360"
       helper_size="10"
       simplify_individual_paths="false"
       simplify_just_coalesce="false" />
    <inkscape:path-effect
       effect="simplify"
       id="path-effect8"
       is_visible="true"
       lpeversion="1.3"
       threshold="15"
       steps="1"
       smooth_angles="360"
       helper_size="10"
       simplify_individual_paths="false"
       simplify_just_coalesce="false" />
    <inkscape:path-effect
       effect="simplify"
       id="path-effect7"
       is_visible="false"
       lpeversion="1.3"
       threshold="15"
       steps="1"
       smooth_angles="360"
       helper_size="10"
       simplify_individual_paths="false"
       simplify_just_coalesce="false" />
    <inkscape:path-effect
       effect="simplify"
       id="path-effect6"
       is_visible="true"
       lpeversion="1.3"
       threshold="15"
       steps="1"
       smooth_angles="360"
       helper_size="10"
       simplify_individual_paths="false"
       simplify_just_coalesce="false" />
    <inkscape:path-effect
       effect="simplify"
       id="path-effect5"
       is_visible="true"
       lpeversion="1.3"
       threshold="15"
       steps="1"
       smooth_angles="360"
       helper_size="10"
       simplify_individual_paths="false"
       simplify_just_coalesce="false" />
    <inkscape:path-effect
       effect="simplify"
       id="path-effect4"
       is_visible="true"
       lpeversion="1.3"
       threshold="12"
       steps="1"
       smooth_angles="360"
       helper_size="10"
       simplify_individual_paths="false"
       simplify_just_coalesce="false" />
    <inkscape:path-effect
       effect="simplify"
       id="path-effect3"
       is_visible="true"
       lpeversion="1.3"
       threshold="12"
       steps="1"
       smooth_angles="360"
       helper_size="10"
       simplify_individual_paths="false"
       simplify_just_coalesce="false" />
    <inkscape:path-effect
       effect="simplify"
       id="path-effect2"
       is_visible="true"
       lpeversion="1.3"
       threshold="5"
       steps="1"
       smooth_angles="360"
       helper_size="10"
       simplify_individual_paths="false"
       simplify_just_coalesce="false" />
    <inkscape:path-effect
       effect="simplify"
       id="path-effect1"
       is_visible="true"
       lpeversion="1.3"
       threshold="12"
       steps="1"
       smooth_angles="360"
       helper_size="10"
       simplify_individual_paths="false"
       simplify_just_coalesce="false" />
  </defs>
  <g
     id="Page-1"
     stroke="none"
     stroke-width="1"
     fill="none"
     fill-rule="evenodd">
    <g
       id="230818_LogoVectorized"
       fill="#000000">
      <path
         d="m 1023.102,0.941 c -1.403,1.602 -1.301,0 -1.403,70.602 0,52.898 1,176.199 1.801,218 0.398,16.797 0.199,32.297 -0.199,34.5 -0.699,3.297 -1.403,4.098 -4.199,4.898 -6.704,1.899 -14.301,14.301 -17.602,28.5 -2.398,10.2 1,18.7 11.602,28.602 2.597,2.5 5.398,4.5 6.199,4.5 0.801,0 2.199,0.898 3.199,2 1.699,1.797 1.801,4.199 1.898,24.398 0.102,12.399 -0.199,22.7 -0.597,23.102 -0.301,0.398 -4.5,1.5 -9.199,2.5 -9.801,2.199 -12.102,3.199 -13.704,6.098 -1.398,2.601 -1.296,31.699 0.102,40.601 0.699,4 0.699,7 0.102,8.098 -0.5,1 -0.903,11.902 -0.903,24.203 0,25.297 -0.801,30.5 -4.898,33.699 -1.5,1.199 -3.102,2.5 -3.403,3 -2.296,2.899 -13.398,14.598 -18.898,19.699 -9.5,9 -24,24 -24,24.801 0,0.399 -1.699,1.598 -3.699,2.699 -2.102,1.102 -5.801,4.399 -8.301,7.399 -2.5,3 -5.699,6.203 -7.102,7.101 -1.398,0.801 -7.296,6.102 -13,11.602 C 911.199,637.141 905,642.84 903,644.34 c -1.898,1.5 -12.898,12 -24.5,23.402 -11.5,11.399 -23.898,23.5 -27.5,26.899 -3.602,3.402 -13.898,13.3 -22.898,22 -9.102,8.8 -16.801,15.902 -17.204,15.902 -0.398,0 -7.398,6.699 -15.597,14.797 -8.102,8.203 -16.602,16.101 -18.801,17.801 -2.199,1.601 -4.398,3.5 -4.898,4.3 -1.704,2.7 -12.102,12.801 -14.5,14.102 -2.5,1.297 -6.403,4.699 -13.5,11.598 -2.204,2.199 -5.301,4.8 -6.801,5.699 -1.5,1 -3.5,3.101 -4.301,4.703 -0.801,1.598 -3.199,3.898 -5.301,4.898 -2,1.102 -9.301,7.602 -16.097,14.5 -6.801,6.899 -13,12.602 -13.801,12.602 -2.301,0 -14.301,12.5 -14.301,14.898 0,2.102 -5,7.5 -16.801,18.102 -4.398,4 -5.097,5.098 -5.699,9.699 -1,7.5 -0.301,8.899 5.5,10.301 5.5,1.297 6.898,0.797 11.398,-3.902 3.204,-3.301 4.602,-3.899 4.602,-1.899 0,0.699 0.898,2.399 2,3.801 1.102,1.398 2,3.5 2,4.699 0,2.098 -0.5,2.301 -4.801,2.301 -3.801,0 -5.301,0.5 -6.898,2.199 -3.102,3.399 -7.199,12.098 -7.903,17 -0.398,2.399 -1.296,5.098 -2.199,6 -1,1.199 -1.199,2.801 -0.801,5.199 0.403,1.899 0.903,7.7 1.102,12.801 0.5,9.598 1.699,85.801 1.5,89.301 -0.102,1.098 -0.199,22 -0.102,46.398 0,37.899 0.301,44.7 1.602,46.7 1.102,1.699 1.199,3 0.5,4.902 -0.5,1.398 -1,6.5 -1,11.297 -0.102,29.203 -0.801,135.203 -0.898,137.703 -0.102,1.598 0.097,7.699 0.296,13.5 0.704,15.797 1.602,103.398 2.204,206.5 0.296,50.598 0.597,93.297 0.597,95 0,1.598 -0.097,8.797 -0.097,15.797 -0.204,12.703 0.5,17.203 3.699,23.203 0.801,1.598 2.301,4.598 3.301,6.598 2,4.101 5.296,5.5 9.296,3.902 1.301,-0.5 2.903,-1.703 3.5,-2.703 1.403,-2.699 5.204,-30.098 5,-36.399 -0.199,-5.601 1.102,-53 1.602,-60.898 0.5,-6.301 0.398,-35.5 -0.102,-41.5 -0.199,-2.801 -0.398,-6.102 -0.398,-7.5 0,-39.602 0.301,-51.602 1.102,-56.902 0.597,-3.801 0.597,-6.801 0.097,-7.5 -0.597,-0.598 -0.597,-7.5 -0.097,-17 0.5,-8.7 0.597,-16.301 0.296,-16.7 -0.597,-1.101 -2.597,-312 -2.296,-385.398 0.097,-47.902 0.199,-45.402 -0.602,-50.203 -0.398,-2.5 -0.199,-5.699 0.5,-7.899 0.801,-2.3 1.301,-8.699 1.199,-15.699 -0.097,-11.101 -0.199,-12 -2.597,-15.199 -1.602,-2 -2.204,-3.602 -1.602,-4 0.602,-0.402 16.898,-0.902 36.301,-1.203 57.801,-1 59.597,-1 74.898,-2.199 18.199,-1.399 22.403,-2.7 18.403,-6 -0.704,-0.598 -9.102,-1.5 -19.704,-2.098 -10.097,-0.602 -20.597,-1.5 -23.398,-2 -2.699,-0.5 -11.699,-1.203 -19.898,-1.402 -15.301,-0.5 -20.301,-1.801 -12.403,-3.2 4.602,-0.8 7.102,-1 32.301,-1.699 8.801,-0.301 24.301,-1 34.5,-1.601 10.199,-0.598 22.102,-1.301 26.5,-1.598 4.398,-0.203 29.801,-0.703 56.398,-1 26.602,-0.402 50,-0.801 51.903,-1 5.801,-0.5 6.801,0.598 7.5,8.199 0.301,3.801 1.5,9.199 2.597,12.098 1.204,2.902 3,7.601 4.204,10.402 3.398,8.598 5.796,13.598 9,18.598 3.597,5.703 16,17.703 21,20.203 2,1.098 4.898,3 6.5,4.297 9.5,8 34.199,15.703 49.898,15.601 5,0 11.301,-0.5 14,-1 2.801,-0.601 6.602,-1.199 8.5,-1.5 18.199,-2.3 22.301,-3.8 29.5,-10.8 3.5,-3.301 4.5,-5 4.5,-7.5 0,-1.899 0.602,-3.399 1.5,-3.7 0.801,-0.3 5.301,-4.898 9.898,-10.101 8.204,-9.098 8.704,-10 11.602,-19.199 3.398,-11.098 3.801,-21.598 1.301,-36.098 -0.801,-4.703 -1.801,-11.203 -2.301,-14.5 -1.602,-12.402 -3.199,-19.203 -5.699,-25 -1.403,-3.301 -4,-10.301 -5.801,-15.602 -2.801,-8.398 -4.199,-10.8 -9.898,-17.5 -7.403,-8.699 -13.102,-13.199 -18,-14.101 -1.704,-0.297 -5.602,-1.797 -8.602,-3.297 -8.898,-4.5 -16,-6.102 -25.801,-5.902 -5,0.101 -9.597,-0.2 -10.801,-0.899 -1.699,-0.902 -3.796,-0.601 -10.5,1.399 -4.597,1.5 -11.796,3.699 -16,4.902 -4.097,1.297 -9.199,2.699 -11.296,3 -2.301,0.5 -4.301,1.699 -5.301,3.199 -0.903,1.301 -2.903,3.098 -4.602,3.899 -4.398,2.3 -12.699,11.5 -12.699,14.101 0,1.199 -1.199,3 -2.898,4.199 -1.5,1.102 -3.801,4.2 -4.903,6.899 -1.199,2.703 -2.801,5.402 -3.597,6.101 -0.704,0.602 -1.903,2.602 -2.602,4.399 -0.602,1.801 -2.199,5.703 -3.5,8.703 -1.301,3 -2.898,7 -3.602,8.797 -1.699,4.703 -3.699,6.601 -5.5,5.101 -0.796,-0.601 -1.398,-1.699 -1.398,-2.5 0,-0.699 -0.5,-1.601 -1.199,-2 -1.199,-0.8 -10.301,-1.699 -14.801,-1.5 -1.398,0 -18.5,0.2 -38,0.5 -55.602,0.5 -99.199,1.602 -103,2.602 -1.898,0.5 -6.898,0.898 -11.102,0.898 -4.199,0 -8.699,0.399 -10,0.899 -1.296,0.402 -9.097,0.5 -17.398,0.203 -8.199,-0.402 -20,-0.5 -26.199,-0.301 -12.199,0.399 -14.602,-0.5 -10.199,-3.902 1.296,-1.098 8.699,-7.899 16.398,-15.199 7.699,-7.399 15.699,-14.899 17.898,-16.7 7.5,-6.601 20.204,-18.3 29.102,-26.898 11.102,-10.703 33.5,-30.703 42.398,-37.801 7.204,-5.801 34.602,-30.902 47.801,-43.699 4.5,-4.402 12.102,-11.602 16.801,-16 13.301,-12.301 68.301,-67.102 84.801,-84.5 27.898,-29.301 32.801,-34.5 41.597,-44.402 4.903,-5.399 9.903,-12 11.204,-14.7 1.296,-2.601 2.898,-4.8 3.5,-4.898 1.5,0 6.097,5.398 9.398,11 3.5,6 16,19.398 26,28.098 6.398,5.5 35.102,33.3 44.898,43.402 0.5,0.5 6.704,6.797 13.704,14 7,7.098 14,14.797 15.597,17 4.301,5.898 26.102,28.297 75.801,77.699 24.5,24.399 55.102,55 68,68.199 12.898,13.102 29.199,29 36.301,35.301 7,6.301 12.699,12 12.699,12.699 0,0.7 -2.602,1.801 -5.898,2.5 -4.903,1.102 -6.301,1.102 -8.204,0 -1.699,-1 -8.597,-1.5 -23.898,-1.8 -30.801,-0.7 -32.301,-0.598 -35.699,0.8 -2.801,1.102 -3.5,1 -6.199,-1 -3,-2.199 -3.204,-2.199 -6.602,-0.601 -2.602,1.203 -4.102,1.402 -6.102,0.703 -3.898,-1.5 -9.5,-1.203 -11.597,0.598 -1.5,1.402 -2,1.5 -3.403,0.3 -1.597,-1.3 -15.699,-1.898 -45.898,-2 -2.199,0 -8.699,0 -14.5,0 -5.801,-0.101 -12.5,-0.101 -14.898,-0.199 -4.204,-0.199 -4.5,0 -5.301,2.801 -0.403,1.598 -2.602,5 -4.801,7.398 -3.5,3.899 -4,5 -4,9.301 0,2.598 0.5,4.801 1,4.801 0.602,0 2.898,1.199 5.199,2.699 l 4.102,2.801 38.597,-0.301 c 21.204,-0.199 44.5,-0.402 51.602,-0.5 16.699,-0.301 63.5,1.098 83.5,2.399 8.5,0.5 22.398,0.902 30.898,0.8 14.801,-0.101 15.602,-0.101 16.903,2 0.801,1.102 2.097,2.102 2.801,2.102 0.796,0 1.398,0.797 1.398,1.797 0,2.5 -7.699,7.203 -12,7.301 -1.898,0 -10.199,0 -18.5,0 -111.301,-0.2 -119.102,0.101 -122.301,3.3 -1.398,1.301 -1.398,1.801 -0.398,2.5 1.5,0.899 22,3.2 26.699,3 1.699,0 8,0.399 14,1 13,1.2 37.102,2.301 50.5,2.2 5.199,-0.098 16,0.402 24,1 8,0.601 17.398,1.101 20.898,1.3 4.602,0.2 6.704,0.7 7.602,1.899 1.602,2.203 2.5,19.402 3,54.402 0.102,15.5 0.602,28.598 0.898,29.098 0.301,0.5 0.801,19.301 1.102,41.801 0.301,22.5 1,45.699 1.5,51.601 0.5,5.801 0.699,12.098 0.398,14 -0.5,2.899 0.204,33.598 2,91.301 0.301,8.797 0.903,22.5 1.301,30.5 0.403,8 0.602,18.898 0.5,24.199 -0.199,5.301 0.102,19.899 0.699,32.5 0.602,12.5 1.301,32.199 1.704,43.801 0.296,11.5 0.699,21.199 0.898,21.5 0.199,0.297 0.602,14.699 1,32 0.301,17.297 1,36.297 1.5,42.098 0.602,5.8 1.102,14.8 1.102,20 0.097,5.199 0.5,12.699 1,16.699 0.5,4.402 0.5,8.101 0,9.101 -0.602,1 -0.403,11.2 0.398,25.602 1.898,34.297 2.699,48.297 2.898,54 0,2.699 0.5,5.699 1.102,6.5 0.5,0.797 1,4.398 1.102,8 0.296,15.5 0.199,14.797 4,19 6.699,7.398 10.5,4.898 12.296,-7.902 2.204,-15.2 0.602,-199.5 -1.796,-212.399 -0.5,-2.601 -0.602,-6.699 -0.403,-9.101 0.5,-3.598 -1.097,-59.5 -2.199,-78.098 -1.199,-21.203 -1.801,-41.102 -1.699,-54.902 0.097,-8.801 -0.199,-17.598 -0.801,-19.5 -0.5,-2 -1.199,-18.899 -1.5,-37.598 -0.301,-18.703 -0.699,-35.801 -1,-38 -1.5,-14.5 -2,-49.102 -0.801,-69 0.301,-5.5 0.5,-10.902 0.403,-12 0,-1.102 -0.5,-8.301 -1.102,-16 -0.5,-7.703 -1,-23 -1,-34 -0.102,-11 -0.199,-22 -0.199,-24.5 -0.102,-2.5 -0.102,-6.301 -0.102,-8.5 0.102,-4.703 0.301,-14.602 0.403,-23 0,-9 0.597,-17.402 1.398,-23.402 l 0.801,-5.301 -7.102,-6.797 c -4,-3.703 -7.199,-7.301 -7.199,-7.902 0,-0.598 1.602,-1.098 3.5,-1.098 3,0 4.5,-0.902 9.199,-5.602 5.602,-5.5 5.602,-5.601 5.5,-11 l -0.097,-5.5 -11.704,-11.5 c -6.5,-6.3 -12.097,-11.398 -12.5,-11.398 -0.5,0 -1.5,-1.301 -2.398,-3 -0.801,-1.602 -2.801,-3.602 -4.301,-4.402 -1.597,-0.801 -5.5,-4 -8.801,-7.098 -3.199,-3.102 -7.097,-6.301 -8.597,-7.102 -1.602,-0.8 -2.801,-1.898 -2.801,-2.398 0,-1.703 -12.699,-14 -14.301,-14 -0.898,0 -2.597,-1.5 -3.898,-3.301 -2.301,-3.301 -17.403,-19.301 -28.903,-30.699 -3.699,-3.602 -7.597,-8 -8.796,-9.801 -1.204,-1.699 -2.801,-3.199 -3.403,-3.199 -1.699,0 -10.801,-8.902 -38.699,-37.902 -13.5,-14 -25.602,-26.301 -26.898,-27.5 -1.403,-1.2 -5.204,-5 -8.5,-8.5 -3.403,-3.5 -7.903,-7.801 -10.204,-9.5 -6.097,-4.7 -31.398,-31.899 -31.398,-33.801 0,-0.899 -2.898,-3.797 -6.5,-6.399 -3.602,-2.601 -6.801,-5.601 -7.102,-6.699 -0.296,-1 -9.296,-10.699 -20,-21.5 -10.597,-10.902 -24.898,-25.301 -31.597,-32.199 -6.699,-6.902 -14.199,-14.102 -16.801,-16 -15.699,-12.102 -18.801,-16.301 -16.602,-22.902 1.301,-3.7 0.903,-10.2 -1.296,-21.098 -1.5,-7.703 -3.704,-19 -5.602,-29 -0.801,-4.703 -2,-17.703 -2.602,-28.902 -0.597,-11.2 -1.5,-21.5 -2,-22.801 -0.699,-2 -1.5,-2.297 -5.597,-2.297 -2.602,0 -7.301,0.5 -10.5,1.199 -6.699,1.399 -7.903,0.699 -7.602,-4.699 0.102,-1.703 -0.199,-12.301 -0.597,-23.703 l -0.602,-20.797 5.898,-2.902 c 11.602,-5.899 16.801,-15.598 16.403,-31.098 -0.102,-4.703 -0.602,-10.102 -1.199,-12 -0.5,-1.902 -1.301,-4.801 -1.602,-6.301 -0.301,-1.601 -1.699,-3.801 -3,-5 -4.898,-4.5 -9.102,-7.5 -13.102,-9.5 -2.5,-1.301 -4.5,-3.199 -5.199,-4.902 -1.097,-2.699 -1.699,-22.399 -2.801,-85.297 -0.296,-16.203 -0.699,-32.402 -0.898,-36 -0.199,-3.602 -0.602,-25 -0.898,-47.5 -1,-69.402 -1.602,-97.301 -2.704,-116 -0.597,-9.902 -1.398,-23 -1.796,-29.203 -0.602,-11.399 -1.704,-14.699 -4,-11.899 z m 10.296,485.399 c 0.704,1.101 3.704,24.703 4.301,33.203 0.301,3.598 1.102,7.199 1.801,8 0.699,0.797 1.602,2.699 2,4.098 0.5,2.101 0.102,2.902 -2,4.3 -3.301,2.102 -4.5,1.399 -4.5,-2.898 0,-1.801 -0.5,-3.5 -1.199,-3.703 -1.199,-0.399 -3.903,-38.5 -3,-42.098 0.5,-1.801 1.699,-2.301 2.597,-0.902 z m 32.102,334.101 c 4.801,1.5 8.102,3.2 11,5.899 2.199,2.101 5.801,5 8,6.402 3.301,2.098 11.199,8.699 20.5,17.301 1.898,1.699 5.602,14.297 6.398,21.797 0.403,3.203 1.301,7.402 2.102,9.402 0.801,1.899 1.5,5.899 1.5,8.801 0,2.797 0.5,7.699 1.102,10.797 0.898,4.5 0.898,7.101 -0.5,13.601 -1.903,9.801 -5.704,16 -15.301,25.301 -7.699,7.399 -7.5,7.301 -24.801,8.301 -6,0.398 -16.602,1 -23.5,1.398 -17.699,1 -22.5,0.102 -33,-6.699 -4.699,-3 -8.898,-6.199 -9.398,-7.101 -0.5,-0.899 -3,-3.7 -5.5,-6.2 -8.301,-8.398 -14.5,-20.398 -16.602,-31.898 -1.801,-10.301 -1.898,-17.402 -0.301,-20.301 0.699,-1.199 2.403,-5.601 3.903,-9.699 2.398,-6.801 6.199,-14.902 10.898,-23.801 1,-1.902 3.602,-5.199 5.699,-7.402 11.903,-12.699 11.602,-12.399 19.301,-14.797 14.699,-4.402 26.5,-4.801 38.5,-1.102 z"
         id="Fill-1" />
      <path
         d="m 1063.199,846.141 c -3.3782,3.29559 -7.223,6.42974 -9.3448,10.68602 -2.6193,5.25425 -6.9834,9.66375 -12.6091,11.78779 -1.0817,0.40839 -2.3771,1.98899 -3.2451,1.22519 -5.5091,-4.84764 -11.0309,-9.69551 -17.1912,-13.76874 -2.0903,-1.3821 -4.5483,-1.15501 -6.8739,-0.55335 -3.1971,0.82711 -7.2004,0.0592 -9.6477,2.56672 -1.8829,1.92924 -0.292,4.71808 1.1336,6.41297 3.7948,4.51169 8.8733,7.53741 13.2322,11.48894 2.5625,2.32295 6.606,3.149 8.261,6.2179 1.031,1.91191 3.3142,2.80075 5.2085,3.69597 4.1521,1.9622 8.4077,4.14839 13.0758,4.45215 3.0523,0.19861 4.751,-2.61691 6.6183,-4.79549 1.6432,-1.91701 1.0511,-4.40318 -0.5738,-6.04862 -2.0717,-2.09794 0.5512,-4.38932 1.976,-5.91101 6.5057,-6.94761 13.4976,-13.5328 18.8943,-21.41505 1.5912,-2.32404 5.3022,-4.06924 4.8869,-6.94039 -0.3524,-2.43621 -2.0126,-5.98951 -4.4503,-5.65808 -2.3693,0.32213 -4.2404,2.24476 -6.0424,3.71661 -1.1258,0.91953 -2.2274,1.86862 -3.3083,2.84047 z"
         id="Fill-4" />
      <path
         d="m 2163.301,681.641 c -8.6949,2.79461 -9.0449,12.79741 -10.7795,20.20083 -7.7075,32.89647 -9.7408,67.28886 -20.9214,99.1618 -3.9519,11.26607 -5.4592,23.41279 -5.3869,35.28334 0.055,9.08845 8.5479,14.82351 16.2625,16.82206 8.9048,2.30688 12.8029,-7.40279 13.381,-14.94902 1.0885,-14.20908 3.4729,-28.21045 6.4031,-42.19356 2.263,-10.79904 4.3586,-21.54281 6.4815,-32.4191 1.7226,-8.82509 -2.8045,-27.24338 6.1567,-26.30535 5.7455,0.60142 0.9707,12.78289 1.0015,17.52507 0.053,8.22225 -3.7649,15.816 -4.4869,23.73705 -2.3685,25.98656 -10.1075,51.1495 -13.3106,77.03888 -1.3811,11.16287 -5.36,21.95929 -6.0161,33.15939 -0.5002,8.54095 -3.2993,16.62727 -4.6826,25.11889 -2.5407,15.59597 -4.0422,31.50292 -8.6029,46.62034 -1.9804,6.56439 -7.3715,18.40923 2.412,20.80025 9.9018,2.41997 9.1498,-8.64413 11.264,-15.97587 2.2815,-7.912 2.6514,-16.13619 4.1256,-24.223 3.6348,-19.93834 7.3071,-39.82384 10.2718,-59.91463 2.0439,-13.8517 4.5866,-27.57809 6.2701,-41.50695 1.5774,-13.05189 6.0969,-25.712 6.3119,-38.89336 0.1306,-8.01084 5.2986,-14.48194 5.3035,-22.58935 0.01,-9.92077 2.7507,-19.25248 3.6509,-29.22075 1.4184,-15.70492 12.6648,-31.90125 7.2851,-46.70634 -2.0972,-5.7716 -9.5603,-1.72048 -10.8229,-11.41187 -1.33,-10.20851 -13.5495,-11.8333 -21.5714,-9.15875 z"
         id="Fill-5" />
      <path
         d="m 2027.301,707.641 c -7.8046,2.73751 -9.0795,11.88334 -7.7736,19.07154 2.5518,14.0471 6.2602,27.87942 10.3566,41.54572 2.8815,9.61315 5.0331,19.36866 7.8114,29.02668 4.4321,15.40664 4.3793,32.14736 10.8746,46.78123 3.4066,7.67484 3.767,16.34759 11.8696,22.58044 6.7844,5.21891 19.3278,-6.00261 21.4724,0.59426 3.906,12.01499 6.0695,24.49032 8.7352,36.85347 4.1625,19.30517 2.885,40.56246 12.166,57.99978 2.8379,5.33195 6.4691,24.69913 10.8858,16.14788 3.6399,-7.0473 1.4151,-16.11272 -0.499,-23.45412 -4.0584,-15.56585 -8.5613,-31.12658 -10.5795,-47.07688 -1.7926,-14.1672 -3.5427,-28.63211 -9.1683,-41.7235 -3.0026,-6.9873 -2.8199,-14.5413 -4.8045,-21.75797 -4.0916,-14.8787 -6.4816,-30.12282 -9.7838,-45.20547 -1.6082,-7.3457 -3.9021,-14.4927 -4.7498,-22.00781 -0.9644,-8.55018 -3.3364,-16.79141 -4.6141,-25.27425 -1.3707,-9.10049 -3.9681,-18.00546 -3.6969,-27.3009 0.2317,-7.94087 -6.1809,-12.01261 -14.4348,-12.91752 -6.5689,-0.72017 -12.188,-7.69251 -19.2731,-5.72449 -1.6527,0.45905 -3.2444,1.11283 -4.7942,1.84191 z"
         id="Fill-6" />
      <path
         d="m 1957.102,866.141 c -5.3992,3.64301 -11.5835,10.8317 -8.196,17.18943 5.4078,10.14958 11.9897,19.68054 19.3332,28.48596 6.3413,7.6037 10.3158,17.52804 18.2844,23.38811 4.1264,3.03447 6.3139,7.66072 9.743,11.36928 6.2803,6.79205 13.3676,12.96057 18.6703,20.53059 3.0954,4.41902 5.1315,11.89492 10.889,12.2713 6.5251,0.42657 13.0203,-2.6259 18.3149,-6.31802 5.9811,-4.17082 8.8351,4.87585 11.8525,8.45812 5.869,6.96772 10.7276,14.72062 16.6977,21.59313 3.2843,3.7808 5.4881,9.1455 10.0363,11.2969 3.0581,1.4466 9.7678,4.942 9.7727,1.6372 0.01,-4.0985 -0.3258,-8.2495 -3.0551,-11.6817 -7.7707,-9.77179 -15.2847,-19.72368 -23.6195,-29.05342 -3.7787,-4.22981 -6.5042,-9.32045 -10.4751,-13.3513 -6.5858,-6.68522 -10.5813,-15.68564 -17.6853,-21.76688 -4.8671,-4.16633 -7.8535,-10.11646 -11.9416,-15.07342 -14.0775,-17.06952 -29.8879,-32.92717 -41.674,-51.66025 -3.3704,-5.357 -9.9254,-5.40656 -14.5043,-8.99194 -4.1871,-3.27865 -8.7314,-1.20564 -12.4431,1.67691 z"
         id="Fill-7" />
      <path
         d="m 2240.801,869.742 c -6.4263,6.83748 -11.5171,14.79355 -17.4091,22.09466 -4.5418,5.62797 -7.3873,12.69733 -12.7653,17.51677 -5.5159,4.94302 -9.2775,11.5262 -13.2586,17.70729 -4.4839,6.96159 -8.9169,14.00135 -12.1946,21.59771 -1.8888,4.37747 -5.9762,9.3491 -4.0793,13.79994 1.9685,4.61891 6.0756,10.29346 11.0775,9.86839 7.3362,-0.62345 -0.2865,6.85794 -2.1415,9.25272 -7.1533,9.23487 -14.6853,18.11084 -22.5533,26.77752 -3.8957,4.2912 -1.9749,9.5817 2.6893,12.9698 4.5599,3.3124 10.7328,-1.1085 12.5239,-5.0636 3.0312,-6.6938 7.6765,-12.5423 11.9955,-18.45559 12.8061,-17.5334 26.9568,-34.06621 39.443,-51.82886 6.1439,-8.74021 13.3197,-16.67371 19.8441,-25.1194 2.7121,-3.51076 8.5877,-9.00805 5.3055,-12.33177 -3.1991,-3.23944 -6.3063,-6.61842 -2.4053,-11.75695 2.9984,-3.94976 6.4379,-7.57653 7.1272,-13.12963 0.6629,-5.34008 -3.8699,-9.14073 -7.7472,-11.84801 -3.7615,-2.62638 -8.6807,-3.76052 -13.1052,-3.07848 -0.8538,0.13161 -1.6716,0.48835 -2.3466,1.02749 z"
         id="Fill-8" />
      <path
         d="m 929,992.543 c -5.63096,2.56205 -11.53471,4.21738 -16.58966,8.3031 -5.35901,4.3315 -8.16366,10.6581 -11.98622,16.2322 -4.52667,6.6008 2.95229,10.4335 2.85403,17.5294 -0.18283,13.2024 -0.55724,26.4711 0.61985,39.6343 0.57307,6.4086 -0.64159,13.032 -1.19595,19.6618 -0.57148,6.8347 0.86755,13.4999 1.37668,20.2479 0.46956,6.2233 -3.10353,12.87 -0.74198,18.6024 2.76197,6.7044 8.50236,10.6035 15.0245,12.2963 6.22955,1.6169 15.645,-8.0441 18.15925,-2.998 2.89756,5.8154 2.14152,12.7871 2.33442,19.1544 0.63494,20.9586 3.47544,41.8921 2.59256,62.8771 -0.2509,5.9636 7.81681,8.0836 7.85352,2.8571 0.20878,-29.7237 -0.70708,-59.5021 1.18133,-89.1647 0.44017,-6.914 -5.04697,-15.5805 -0.38403,-20.7401 4.82346,-5.3373 0.0932,-11.5846 0.0896,-18.4957 -0.01,-18.6963 -9.14522,-40.1445 0.61314,-56.0995 1.63774,-2.6777 0.42165,-2.0089 2.44147,-6.567 1.45631,-3.2865 8.50743,-4.9352 6.95653,-8.132 -3.87791,-7.9933 -5.37786,-17.5398 -11.20992,-24.1848 -4.50161,-5.12908 -9.76949,-11.70549 -16.85221,-11.94252 -1.11077,-0.0372 -2.21777,0.3124 -3.13687,0.92832 z m 7.398,81.5 c 0.94212,11.0946 4.77632,23.4322 -0.12508,33.4258 -2.32894,4.7485 -2.34884,-7.9481 -2.44573,-10.4253 -0.31604,-8.0798 -5.62243,-20.0718 1.30603,-24.3621 0.78631,-0.4869 0.98193,1.16 1.26478,1.3616 z m 0.602,40.598 c -2.87414,5.616 -1.94599,-8.2013 0,0 z m 0.102,4.101 c 0.034,4.7723 1.324,19.5013 -0.92019,16.4111 -2.71496,-3.7384 -3.96436,-15.4045 0.92019,-16.4111 z"
         id="Fill-9" />
      <path
         d="m 1142.5,1000.141 c -7.7595,4.7711 -13.1429,12.8537 -21.0619,17.3261 -3.8935,2.199 -9.9182,6.0952 -7.707,10.941 2.6447,5.7957 1.9892,12.4047 2.5396,18.6249 1.2543,14.1769 1.3196,28.4021 1.2242,42.6462 -0.073,10.9698 1.0644,21.8649 1.7243,32.8226 0.4054,6.7319 -1.7045,14.1607 1.3678,20.2395 2.5379,5.0213 9.187,3.4539 13.8055,4.4739 4.8879,1.0795 10.4546,-0.6359 12.7145,-5.2746 2.9082,-5.9692 2.3325,-12.9318 2.011,-19.3676 -0.9799,-19.6172 -1.2428,-39.2567 -1.736,-58.8894 -0.2447,-9.7441 -1.3088,-19.425 -2.3379,-29.1179 -0.6832,-6.4342 8.3925,-6.5069 8.9888,0.5428 1.2112,14.3206 1.3631,28.7161 1.804,43.0814 0.5642,18.3813 1.3266,36.7546 2.794,55.0904 1.2824,16.0232 4.0781,32.0407 3.138,48.1339 -0.2281,3.9033 3.8923,5.287 4.4407,0.624 1.6289,-13.8486 1.2577,-27.8497 1.3586,-41.7712 0.2547,-35.1382 1.7638,-70.3033 0.3812,-105.4171 -0.1925,-4.889 1.9953,-8.8038 0.8716,-14.0173 -1.7124,-7.9445 -5.2639,-15.7009 -12.1843,-20.8278 -4.2496,-3.14828 -9.8227,-2.41732 -14.1367,0.1362 z"
         id="Fill-10" />
      <path
         d="m 1963.199,1001.941 c -1.6863,4.1749 -6.7038,2.4549 -10.2441,3.3127 -3.6594,0.8867 -7.4022,2.7415 -8.832,6.6449 -1.6453,4.4918 -2.8358,9.1534 -1.9021,14.1345 0.6906,3.6841 3.0446,6.4047 6.6375,8.0548 8.6486,3.9718 17.7442,6.8015 26.7182,9.9501 12.4228,4.3587 25.1205,9.4507 38.5362,9.1369 5.0675,-0.1185 9.4084,-2.725 13.9893,-4.9329 3.553,-1.7125 5.164,-8.2479 8.5307,-7.5151 6.9041,1.5027 12.9638,5.9464 19.9151,7.1303 6.2605,1.0663 10.367,7.2623 16.8323,7.6135 4.2337,0.23 6.7135,-4.1377 6.391,-8.0721 -0.281,-3.4281 -2.2879,-7.1471 -6.2874,-7.898 -9.123,-1.7127 -17.1037,-7.0646 -25.9951,-9.4574 -7.9465,-2.1386 -15.0381,-6.5477 -22.6263,-9.6652 -11.8688,-4.876 -23.6897,-9.8643 -35.6732,-14.4677 -7.5913,-2.9162 -15.4551,-6.28583 -23.5722,-6.1916 -1.2603,0.0146 -1.9304,1.2419 -2.4179,2.2223 z"
         id="Fill-11" />
      <path
         d="M2370,1008.543 C2368.102,1009.043 2362.5,1010.141 2357.5,1011.141 C2352.602,1012.043 2344.699,1014.043 2340,1015.543 C2334.602,1017.242 2326.898,1018.742 2319,1019.441 C2312.199,1020.141 2306.199,1020.941 2305.699,1021.242 C2305.301,1021.441 2299.801,1021.84 2293.5,1022.043 C2287.199,1022.242 2277.699,1023.141 2272.398,1024.043 C2258.602,1026.441 2253.898,1024.641 2262.301,1020.043 C2266.699,1017.641 2267.602,1015.742 2265.5,1013.641 C2264.102,1012.242 2263.301,1012.242 2257.199,1013.941 C2253.5,1014.941 2248.898,1016.141 2247,1016.543 C2241.602,1017.84 2231.602,1021.242 2218.602,1026.242 C2207.602,1030.543 2205.699,1030.941 2193.102,1031.84 C2175.801,1033.043 2168.801,1033.441 2157,1033.84 C2151.801,1034.043 2146.898,1034.242 2146.102,1034.34 C2145.301,1034.441 2143,1036.441 2140.898,1038.641 L2137.102,1042.742 L2122.102,1041.543 C2104.699,1040.242 2103.602,1040.441 2102.602,1046.742 C2102.102,1050.043 2102.301,1051.441 2103.801,1053.543 C2105.5,1055.84 2106.5,1056.043 2113.898,1056.34 C2119.199,1056.543 2122.199,1057.043 2122.398,1057.84 C2122.602,1058.543 2123.5,1061.543 2124.398,1064.543 C2125.199,1067.543 2126.199,1073.543 2126.602,1077.742 C2127.301,1086.34 2126.5,1088.543 2122.301,1088.543 C2119.199,1088.543 2115.398,1092.641 2114.602,1096.84 C2114.301,1098.641 2113.801,1121.141 2113.5,1147.043 C2112.699,1209.941 2111.602,1238.543 2110,1238.543 C2109.5,1238.543 2108,1237.141 2106.5,1235.34 C2104.102,1232.543 2103.898,1231.742 2104.5,1227.141 C2104.898,1224.34 2105.898,1220.043 2106.699,1217.641 C2108.301,1212.84 2107.898,1208.543 2105.5,1204.84 C2102.5,1200.441 2095.398,1202.742 2093.102,1208.84 C2092.602,1210.043 2091.898,1215.043 2091.5,1219.84 C2091,1226.543 2090.398,1229.141 2089,1230.242 C2082.699,1235.543 2081.102,1237.641 2080,1241.641 C2079.398,1244.043 2076.898,1252.141 2074.5,1259.543 C2071,1270.641 2070.199,1274.641 2069.898,1282.043 C2069.602,1294.84 2069.602,1295.043 2073.5,1298.84 C2077.801,1303.043 2077.898,1304.242 2074.398,1324.141 C2071.199,1342.641 2070.301,1358.742 2072.398,1360.441 C2074.301,1362.043 2077.699,1360.941 2079.5,1358.242 C2080.199,1357.043 2081.602,1352.441 2082.398,1348.043 C2083.199,1343.641 2084.398,1338.043 2085,1335.543 C2085.5,1333.043 2086.5,1328.543 2087,1325.543 C2089.102,1313.543 2090.898,1307.742 2094.398,1301.742 C2096.801,1297.441 2097.801,1294.641 2097.398,1293.141 C2097.102,1291.84 2097.801,1288.242 2098.898,1285.043 C2100.102,1281.742 2101,1278.242 2101,1277.242 C2101,1276.141 2101.898,1273.641 2102.898,1271.641 C2104,1269.641 2105.602,1265.641 2106.5,1262.84 C2110,1251.742 2111.199,1255.441 2111.5,1277.941 C2111.602,1289.641 2111.301,1296.242 2110.398,1299.043 C2109.301,1302.141 2109.301,1303.242 2110.301,1304.543 C2111.301,1305.742 2111.5,1318.641 2111.398,1363.043 C2111.199,1394.34 2111.5,1425.84 2111.898,1433.043 C2112.398,1440.141 2112.398,1446.742 2111.898,1447.641 C2111.5,1448.543 2111.102,1451.242 2111,1453.641 C2110.801,1465.543 2112.102,1592.34 2112.5,1608.043 C2112.898,1617.941 2113.102,1627.34 2113.102,1629.043 C2112.699,1666.84 2113.301,1734.941 2114.102,1737.742 C2115.199,1742.141 2120.5,1746.543 2127.102,1748.742 C2132.199,1750.34 2133.898,1749.941 2138.398,1746.242 C2140.898,1744.043 2141.301,1742.84 2142.199,1734.941 C2143.5,1723.34 2143.5,1724.641 2142.5,1677.043 C2141.898,1645.441 2141.602,1580.84 2141.898,1540.543 C2142,1539.141 2141.699,1535.043 2141.398,1531.34 C2141.102,1527.242 2141.301,1523.941 2142,1522.641 C2142.699,1521.242 2142.699,1519.941 2142.102,1518.742 C2141.602,1517.84 2141.102,1511.641 2140.898,1505.043 L2140.5,1493.043 L2145.602,1492.441 C2148.398,1492.043 2153,1491.043 2155.801,1490.141 C2158.699,1489.141 2161.398,1488.641 2161.898,1488.941 C2162.398,1489.34 2163.102,1492.641 2163.5,1496.34 C2163.801,1500.043 2164.602,1505.941 2165.199,1509.543 C2166.199,1515.84 2166.699,1524.441 2167.301,1546.543 C2167.602,1557.043 2168.801,1561.242 2172.801,1565.742 C2174.398,1567.742 2180,1568.141 2182.898,1566.641 C2186.301,1564.742 2187.398,1558.543 2185.898,1549.84 C2185.199,1545.543 2184.602,1538.641 2184.5,1534.543 C2184.398,1530.441 2183.801,1524.242 2183.102,1520.84 C2182.301,1516.34 2182.199,1514.043 2183,1512.543 C2183.801,1511.043 2183.699,1510.043 2182.602,1508.34 C2181.801,1507.043 2180.898,1502.141 2180.5,1497.441 C2179.801,1489.441 2179.898,1488.641 2181.898,1486.641 C2183.102,1485.441 2184.602,1484.543 2185.301,1484.543 C2186.102,1484.543 2187.5,1483.641 2188.5,1482.543 C2191,1479.84 2189.301,1476.141 2184.602,1474.141 C2181.301,1472.742 2181.199,1472.543 2180.602,1465.84 C2180.199,1462.141 2179.5,1456.242 2179,1452.941 C2178.398,1449.543 2178,1443.641 2178,1439.742 C2178,1433.441 2178.199,1432.641 2180.5,1431.141 C2183.602,1429.043 2183.699,1427.543 2180.602,1424.641 C2178.602,1422.742 2178.199,1421.242 2177.602,1412.742 C2177.301,1407.441 2176.5,1401.242 2175.898,1399.043 C2175.199,1396.543 2175,1391.34 2175.301,1385.242 C2175.801,1377.141 2175.602,1374.441 2173.898,1368.84 C2172.199,1363.543 2171.898,1359.941 2172.102,1351.141 C2172.199,1345.043 2171.898,1336.34 2171.5,1331.742 C2170.801,1324.141 2170.398,1323.043 2166.699,1318.441 C2164.602,1315.742 2161.898,1313.043 2160.898,1312.441 C2159.898,1311.941 2159,1310.441 2159,1309.242 C2159,1308.043 2158.102,1305.34 2157,1303.242 C2155.5,1300.543 2154.699,1296.141 2154,1287.242 C2152.801,1273.441 2151.699,1262.242 2150.102,1248.742 C2149.5,1243.641 2148.5,1229.84 2148,1218.242 C2146.801,1193.34 2145.5,1175.141 2144.699,1173.84 C2144.398,1173.34 2144.602,1172.34 2145.102,1171.543 C2146.898,1168.84 2148.699,1173.141 2152.5,1188.84 C2154.5,1197.242 2156.801,1205.941 2157.699,1208.242 C2159.199,1212.34 2159.199,1214.941 2157.398,1225.641 C2157,1227.941 2157.5,1231.043 2158.602,1234.141 C2159.5,1236.84 2160.801,1242.441 2161.5,1246.543 C2162.199,1250.641 2163.898,1257.84 2165.398,1262.543 C2166.801,1267.242 2169.199,1275.742 2170.602,1281.543 C2172.301,1288.242 2174.102,1292.941 2175.5,1294.543 C2179.301,1298.641 2182,1303.84 2182,1306.84 C2182,1308.34 2182.602,1311.141 2183.398,1313.043 C2184.199,1314.941 2185.602,1319.043 2186.398,1322.242 C2187.301,1325.441 2188.898,1331.141 2190.102,1335.043 C2192.5,1343.242 2194.301,1350.141 2196.5,1360.543 C2197.398,1364.641 2198.801,1369.043 2199.602,1370.242 C2200.398,1371.441 2201,1373.543 2201,1374.742 C2201.102,1381.043 2207.199,1405.34 2209.699,1409.043 C2210.398,1410.141 2211,1412.141 2211,1413.641 C2211,1416.941 2214.199,1426.641 2216.398,1429.941 C2218.5,1433.242 2220.5,1433.242 2222.602,1430.043 C2224,1427.84 2224.102,1426.641 2223.102,1421.84 C2222.5,1418.742 2222,1414.84 2222,1413.141 C2222,1411.441 2221,1408.043 2219.898,1405.543 C2218.801,1403.043 2217.301,1398.141 2216.5,1394.543 C2215.699,1390.941 2214.699,1386.141 2214.102,1383.742 C2213.5,1381.441 2212.5,1377.641 2212,1375.242 C2211.398,1372.941 2210.301,1368.641 2209.5,1365.742 C2208.699,1362.84 2208,1359.34 2208,1358.043 C2208,1356.641 2206.699,1351.441 2205.102,1346.34 C2203.5,1341.242 2201.699,1333.84 2201,1330.043 C2200.398,1326.141 2199.398,1321.641 2198.801,1320.043 C2196.602,1313.84 2194.301,1304.043 2194.699,1302.84 C2195,1302.242 2196.5,1301.34 2198.102,1301.043 C2204.801,1299.543 2208.199,1291.141 2204.398,1285.641 C2203.5,1284.34 2202.301,1281.441 2201.801,1279.242 C2201.301,1276.941 2200.199,1274.34 2199.398,1273.441 C2198.602,1272.543 2197.5,1269.141 2196.898,1265.941 C2196.301,1262.742 2194.898,1257.543 2193.898,1254.441 C2192.801,1251.34 2192,1246.84 2192,1244.441 C2192,1242.043 2191.301,1238.043 2190.5,1235.641 C2189.602,1233.242 2188.699,1229.242 2188.301,1226.641 C2187.801,1222.742 2186.898,1221.242 2182.398,1216.742 C2179.398,1213.941 2176.102,1211.543 2175.102,1211.543 C2171.801,1211.543 2170.102,1206.641 2164.398,1180.543 C2161.199,1165.543 2159.199,1157.941 2157.5,1154.242 C2156.602,1152.141 2151.898,1149.543 2149.102,1149.543 C2145.398,1149.543 2144.199,1145.84 2144.398,1135.043 C2144.602,1126.941 2144.301,1124.441 2142.699,1121.84 C2141.102,1119.043 2141,1117.941 2142,1112.543 C2142.801,1107.941 2142.801,1105.543 2142,1102.941 C2140.398,1098.242 2140.801,1069.742 2142.5,1062.641 C2143.199,1059.543 2143.102,1059.34 2141.102,1060.043 C2139.898,1060.441 2139,1060.242 2139,1059.641 C2139,1059.043 2139,1058.242 2138.898,1057.84 C2138.898,1057.141 2145.801,1054.543 2148.102,1054.543 C2148.898,1054.543 2151.102,1055.641 2153,1057.043 C2155.301,1058.742 2157.699,1059.543 2160.398,1059.543 C2164,1059.543 2186.5,1062.043 2206,1064.543 C2209.602,1065.043 2218.5,1065.941 2225.898,1066.441 C2233.301,1067.043 2240.699,1067.941 2242.398,1068.543 C2244.102,1069.043 2251.602,1069.941 2259,1070.543 C2277.602,1072.043 2299.699,1075.141 2315,1078.242 C2319.102,1079.043 2324.102,1079.941 2326,1080.141 C2333.301,1081.141 2334,1081.441 2334,1084.043 C2334,1089.34 2335.602,1091.242 2342.102,1093.441 C2345.602,1094.543 2349.398,1095.543 2350.699,1095.543 C2351.898,1095.543 2354.898,1095.941 2357.199,1096.441 C2380.801,1101.742 2384,1101.84 2390,1097.242 C2399.301,1090.34 2405.699,1086.242 2411.5,1083.441 C2417.301,1080.742 2417.699,1080.34 2420.699,1073.34 C2423.801,1066.141 2423.801,1065.84 2423.301,1053.84 C2422.801,1043.242 2422.398,1041.141 2420.102,1036.941 C2418.699,1034.34 2416.801,1031.84 2416,1031.543 C2415.199,1031.141 2412.801,1030.043 2410.801,1029.242 C2406.898,1027.543 2399.398,1022.043 2395,1017.742 C2393.5,1016.242 2390.102,1013.543 2387.5,1011.641 C2382.199,1007.941 2376.398,1006.941 2370,1008.543 Z M2304.801,1036.34 C2305.5,1036.84 2306.898,1038.941 2308,1041.043 C2311.398,1047.84 2311.301,1047.84 2280.398,1046.441 C2265.602,1045.84 2249.102,1045.34 2243.602,1045.441 C2236,1045.641 2233.898,1045.34 2234.199,1044.34 C2234.801,1042.641 2238.602,1042.043 2262,1040.043 C2272.699,1039.141 2284.898,1037.742 2289,1037.043 C2297.898,1035.441 2303,1035.242 2304.801,1036.34 Z M2335,1040.34 C2335,1041.641 2334.602,1042.34 2334,1042.043 C2333.5,1041.742 2333,1039.941 2333,1038.242 C2333,1035.84 2333.301,1035.441 2334,1036.543 C2334.5,1037.34 2335,1039.043 2335,1040.34 Z M2302.801,1053.441 C2308.199,1053.543 2309,1053.84 2309,1055.441 C2309,1060.043 2302.699,1060.543 2279.5,1057.543 C2267.301,1055.941 2266,1055.641 2266,1054.543 C2266,1053.441 2274.898,1052.84 2287.5,1053.141 C2292.5,1053.242 2299.301,1053.34 2302.801,1053.441 Z M2140.398,1248.141 C2141.102,1249.941 2140.398,1251.543 2138.898,1251.543 C2138.398,1251.543 2138,1250.441 2138,1249.043 C2138,1246.242 2139.5,1245.641 2140.398,1248.141 Z M2142.5,1270.641 C2143.5,1273.84 2142.199,1277.742 2140.199,1277.34 C2138.102,1276.941 2137.301,1272.043 2139.102,1269.941 C2140.699,1267.941 2141.801,1268.141 2142.5,1270.641 Z M2142.699,1281.742 C2143.301,1282.441 2144,1286.742 2144.301,1291.242 C2144.801,1298.141 2144.699,1299.441 2143.301,1299.941 C2140.699,1300.941 2138.898,1298.742 2140.199,1296.141 C2140.898,1294.441 2140.898,1293.141 2140.102,1291.742 C2138.301,1288.34 2138.898,1280.543 2141,1280.543 C2141.398,1280.543 2142.199,1281.141 2142.699,1281.742 Z M2145.801,1316.742 C2146.5,1317.441 2147,1320.441 2147,1323.543 C2147,1326.543 2147.398,1330.543 2148,1332.441 C2149.398,1337.441 2147.801,1339.742 2143.199,1339.34 L2139.5,1339.043 L2138.602,1328.242 C2137.801,1319.242 2137.898,1317.242 2139.102,1316.441 C2141.102,1315.242 2144.398,1315.34 2145.801,1316.742 Z M2150.398,1358.742 C2150.699,1360.043 2151,1365.242 2151,1370.34 C2151,1377.543 2150.699,1379.742 2149.5,1380.141 C2147.801,1380.84 2141.301,1378.84 2140.398,1377.34 C2140,1376.742 2139.5,1372.441 2139.301,1367.742 C2138.801,1357.941 2139.602,1356.543 2146.102,1356.543 C2149.102,1356.543 2149.898,1356.941 2150.398,1358.742 Z M2153.5,1397.742 C2153.699,1399.043 2154.398,1404.043 2154.898,1409.043 C2156.102,1420.441 2155.801,1420.84 2147.102,1419.742 C2143.602,1419.242 2140.398,1418.242 2139.898,1417.441 C2138.898,1416.043 2139.602,1404.641 2140.898,1399.742 C2141.699,1396.941 2144.102,1395.84 2149.699,1395.641 C2152.301,1395.543 2153.102,1396.043 2153.5,1397.742 Z M2157.801,1447.242 C2158.301,1448.242 2159.102,1452.84 2159.5,1457.441 C2159.801,1462.043 2160.602,1466.941 2161.102,1468.34 C2162.602,1472.242 2160.898,1473.043 2151.699,1472.641 C2139.801,1472.242 2139.602,1472.043 2140.301,1462.242 C2140.699,1455.441 2141.199,1453.742 2143,1452.34 C2144.199,1451.34 2146,1450.543 2146.898,1450.543 C2147.801,1450.543 2150.102,1449.441 2152,1448.043 C2156,1445.043 2156.602,1445.043 2157.801,1447.242 Z"
         id="Fill-13" />
      <path
         d="m 2054.5,1088.543 c -2.5789,2.3038 -6.1044,2.3984 -9.1371,3.7242 -4.2368,1.8523 -8.2358,4.247 -12.6632,5.6793 -4.0415,1.3075 -8.1626,2.5299 -12.3987,3.1945 -3.021,0.474 -4.268,4.1716 -7.3412,5.1976 -10.9469,3.6549 -21.7628,7.6775 -32.3278,12.3665 -5.7854,2.5677 -12.0955,4.9989 -16.3192,9.7942 -3.8847,4.4105 -6.0694,10.1284 -6.3113,16.1361 -0.1852,4.6006 0.4888,9.5219 3.8291,13.0431 2.3114,2.4367 4.9872,6.4223 8.8821,4.944 6.7699,-2.5696 13.2285,-5.9079 19.7463,-9.0615 7.4696,-3.6141 15.3291,-6.2718 23.0706,-9.2459 6.8593,-2.6351 12.8695,-7.2095 17.9325,-12.4852 2.657,-2.7686 2.6022,-6.6682 2.8013,-10.1902 0.1508,-2.6665 2.2123,-2.9839 0.4038,-6.8966 -1.7861,-3.8641 4.4312,-5.0499 7.0852,-5.9362 3.4645,-1.157 6.9603,-2.1207 10.2996,-3.6662 3.1034,-1.4364 6.6225,-1.0446 9.8167,-2.0074 3.5722,-1.0767 8.0483,-3.3875 7.9231,-7.7539 -0.1335,-4.655 -3.953,-8.0461 -8.3179,-9.5102 -2.7123,-0.9098 -4.9915,1.1398 -6.9739,2.6738 z"
         id="Fill-15" />
      <path
         d="m 2185,1086.84 c -3.7037,2.3092 -7.6428,6.917 -6.2853,11.4623 1.3955,4.6727 6.9384,4.7871 11.0771,5.0369 4.2957,0.2593 11.5724,-0.2021 12.2911,4.2584 0.6262,3.8868 -2.664,7.6594 -1.6713,11.6112 0.9441,3.7584 3.487,7.0438 7.3497,8.2929 7.7586,2.5088 14.5198,7.5464 22.3379,9.744 8.1235,2.2834 15.9393,5.6661 23.5296,9.333 3.4702,1.6764 6.9771,3.0643 10.7944,4.1578 4.7252,1.3536 8.5829,5.1485 13.8427,4.8623 7.5827,-0.4125 10.9428,-13.3309 17.7341,-11.4578 4.8562,1.3394 9.7061,5.0314 14.6505,3.788 5.1753,-1.3014 0.079,-6.0873 -2.4536,-7.6906 -6.6701,-4.2223 -13.6648,-7.9954 -20.941,-11.0231 -11.3423,-4.7197 -23.3541,-8.2257 -33.7904,-14.7525 -6.8449,-4.2807 -14.0421,-7.9218 -21.8906,-10.1308 -3.7171,-1.0463 -6.9869,-3.0915 -10.1614,-5.2394 -3.1628,-2.14 -6.7843,-1.7655 -10.2787,-3.7658 -5.3157,-3.0428 -11.1421,-4.9493 -16.4095,-8.2176 -2.9443,-1.8268 -6.6858,-1.952 -9.7253,-0.2692 z"
         id="Fill-16" />
      <path
         d="m 2652.898,1118.941 c -20.5949,5.4604 -32.3342,27.9896 -33.4519,47.5844 -1.0653,18.6756 21.3468,48.1369 4.2408,55.8912 -11.3267,5.1345 -26.528,-15.4691 -42.3859,-10.5766 -12.48,3.8503 -14.5676,35.0447 -30.6268,19.0333 -12.7071,-12.6693 -25.8901,-28.3351 -45.774,-29.5125 -15.0398,-0.8905 -31.7889,-1.3001 -43.1502,11.343 -9.3125,10.3631 -6.7716,34.4318 -21.8193,35.7709 -23.0575,2.0517 -48.1224,-4.5063 -69.3013,4.9948 -15.6575,7.0241 -10.8778,31.3814 8.7327,30.7664 42.2613,-1.3253 92.2069,20.4916 126.7399,-4.1929 10.3125,-7.3715 9.0402,-28.6385 -3.081,-30.4943 -10.2982,-1.5767 -40.9729,-1.7684 -22.0732,-15.8263 14.8604,-11.0535 34.8428,-1.8321 48.4203,7.398 11.8158,8.0325 23.9112,39.3655 38.911,25.1607 9.5717,-9.0644 17.6106,-22.3361 31.4997,-23.0684 12.6472,-0.6669 21.7762,16.0606 31.0665,23.4398 12.5907,10.0006 -0.5175,-13.1385 9.3416,-17.9361 15.9661,-7.7694 5.5986,-27.0407 6.1141,-40.6734 0.5744,-15.1911 1.4428,-32.14 10.7178,-44.8111 11.212,-15.3175 33.1421,-16.8929 49.0563,-10.3805 11.3371,4.6395 32.9793,20.1014 16.9249,31.3906 -12.9682,9.119 -7.0922,7.4751 11.0314,15.1344 8.075,3.4127 -6.3374,8.3366 -9.6261,12.2284 -9.0135,10.6661 9.6026,18.5705 6.9879,30.0206 -4.3265,18.9464 20.869,23.968 34.907,20.1574 18.3019,-4.968 35.9659,-4.4734 54.901,-4.8753 23.4161,-0.4971 45.2897,9.5154 67.7903,14.642 17.2362,3.9272 34.9133,6.2385 51.7458,11.9924 11.6589,3.9853 38.1735,-24.8645 17.4589,-22.0944 -12.7436,1.7041 -33.115,7.4722 -40.9972,-2.6075 -10.8481,-13.8724 -29.5087,-12.6693 -44.199,-19.699 -25.9026,-12.3951 -81.9674,19.5616 -82.5,-8.098 -0.194,-10.0751 -2.7807,-27 -13.1409,-27 -6.2864,0 -18.4196,6.271 -18.8591,0 -1.0548,-15.0497 -6.2959,-29.3567 -6.5962,-44.4076 -0.3476,-17.4185 -18.826,-26.6065 -33.4357,-30.4761 -15.568,-4.1234 -30.927,-9.5717 -47.1504,-11.0825 -6.1246,-0.5704 -12.4182,-0.6782 -18.4197,0.8642 z"
         id="Fill-18" />
      <path
         d="m 2178.199,1126.84 c -5.2738,4.7855 0.547,10.577 4.394,14.236 6.6554,6.3302 23.5114,15.799 16.606,21.764 -4.8252,4.1681 -10.3964,9.0136 -10.1305,16.0031 0.2157,5.6701 4.8366,9.5393 7.9181,13.8489 9.6892,13.5507 20.456,26.3419 29.0564,40.6564 2.7537,4.5834 5.8956,8.6815 9.545,12.6551 4.4405,4.835 7.3213,14.7069 14.4318,13.7018 5.0282,-0.7107 10.016,-2.2506 15.156,-2.7952 4.6213,-0.4897 4.7564,-9.0907 10.2711,-3.9361 8.4782,7.9246 18.1554,15.4308 23.1551,25.866 3.1261,6.5247 9.181,1.8963 4.9249,-4.1133 -6.525,-9.2131 -14.244,-17.3506 -21.1895,-26.3102 -3.6088,-4.6553 -6.5977,-9.6967 -9.9777,-14.5743 -4.4963,-6.4885 -10.5851,-11.5827 -15.5177,-17.7687 -6.7435,-8.4568 -15.0043,-16.0307 -19.4703,-25.9296 -1.7125,-3.7958 -3.0762,-5.9839 -6.593,-9.3305 -10.9303,-10.4013 -18.808,-23.3498 -28.5294,-34.8556 -5.4421,-6.441 -7.5268,-16.384 -15.0503,-20.3168 -2.9029,-1.5175 -6.7529,-1.4866 -9,1.199 z"
         id="Fill-20" />
      <path
         d="m 1500,1129.641 c -14.7788,2.997 -31.3626,0.8973 -44.4468,8.6022 -10.5668,6.2224 -25.59,8.8774 -30.628,21.0905 -4.9158,11.9166 -18.8112,32.9302 -6.7881,38.2703 13.0195,5.7826 12.2293,21.1349 20.1192,31.6573 10.1171,13.493 17.2284,-8.5852 13.0376,-19.1001 -6.1657,-15.47 2.5445,-31.4158 16.8681,-40.5456 12.6264,-8.048 30.0453,-4.3037 44.236,-9.1746 15.034,-5.1604 21.8249,9.266 9.6206,20.0757 -12.6028,11.1626 -26.0139,21.5362 -40.5815,29.8799 -9.2106,5.2754 -30.4153,14.0539 -16.9371,27.7444 12.5897,12.788 36.0406,4.731 47.1739,17.2112 10.9309,12.2535 29.4052,0.1222 35.6449,-9.9871 8.6742,-14.0532 -11.8878,-24.6879 -11.1814,-37.6931 0.7728,-14.2259 19.4272,-18.9111 23.165,-1.7223 2.0954,9.6358 18.2607,37.0102 19.7474,17.5431 0.8104,-10.6127 3.5959,-22.8734 21.2731,-22.5231 9.6578,0.1914 11.2444,-11.6748 24.2791,-12.2277 12.0626,-0.5116 41.6888,2.1924 34.2862,14.1545 -7.4197,11.9897 -18.7692,20.0412 -28.9638,29.3795 -8.4124,7.7059 -26.1551,19.5426 -9.6447,31.2825 12.3364,8.772 27.9272,9.1582 42.3593,10.4433 13.9919,1.246 27.1892,-0.8895 41.0166,1.5316 14.4642,2.5326 21.0262,-17.7234 34.1172,-15.8727 12.6046,1.782 25.937,-1.4966 37.862,4.8282 12.9303,6.8579 35.3991,-10.7663 40.1662,5.4521 2.7439,9.3352 -0.5747,29.0141 17,23.801 11.8089,-3.5028 12.1431,8.0021 25.0746,9.0129 10.9761,0.8579 39.2734,8.7827 35.6244,-9.2119 -2.2189,-10.9421 20.7818,-4.7483 28.6365,-7.7642 17.0818,-6.5589 2.6017,-28.7256 -10.4375,-33.8378 -11.0948,-4.3499 -24.2771,2.931 -35.8271,5.1349 -12.4509,2.3759 -36.0185,12.3337 -39.4887,1.0238 -4.5704,-14.8958 -19.4595,-20.9703 -29.4942,-32.5958 -13.0628,-15.1337 -28.9652,-4.3031 -42.9252,0.4734 -14.3521,4.9107 -30.0101,1.0242 -44.1849,8.3125 -13.387,6.8833 -33.3001,3.3579 -41.9482,16.0234 -7.393,10.8273 -26.7538,9.5063 -36.1078,3.4468 -13.1152,-8.4958 8.4043,-20.6366 15.7313,-26.3572 10.6712,-8.3318 29.2022,-17.4883 26.9463,-29.7233 -2.8127,-15.2546 -13.3102,-26.0006 -27.5289,-31.9635 -13.574,-5.6925 -29.7951,-11.5375 -42.9943,-6.0196 -14.6281,6.1153 -27.8377,11.0623 -43.9793,18.0456 -13.7448,5.9464 -10.2401,-13.7718 -16.0504,-22.5109 -7.3162,-11.0042 -17.5331,-30.0184 -29.7711,-25.3018 -8.5916,3.3112 -15.5088,-3.1505 -24.0765,-0.2883 z m 17.199,82.601 c -4.8584,9.7255 19.3779,32.5474 6.6106,28.0543 -12.6559,-4.454 -40.2687,3.8051 -39.0086,-9.5543 1.037,-10.9942 19.0225,-27.9172 30.8932,-25.2723 2.7004,0.6016 1.0982,4.9844 1.5048,6.7723 z"
         id="Fill-21" />
      <path
         d="m 2061.199,1140.84 c -1.7134,3.7148 -3.8398,7.1803 -6.7546,10.1555 -3.6935,3.77 -6.4362,8.2649 -9.5113,12.5657 -4.8104,6.7277 -11.091,12.1748 -15.5437,19.2782 -4.5697,7.2901 -11.0105,13.0799 -15.9786,20.079 -8.571,12.075 -17.4846,23.9134 -27.1221,35.1617 -3.313,3.8667 -5.8695,8.207 -8.509,12.5701 -2.0898,3.4546 -6.9671,6.9607 -5.5811,10.994 1.7131,4.9853 7.5198,2.0114 10.45,-0.4617 5.6472,-4.7664 7.2133,-17.4399 14.4948,-16.499 4.2311,0.5468 5.6478,5.4632 8.2051,8.3016 3.1039,3.4451 6.723,6.3746 11.6806,7.3403 4.5372,0.8839 7.7452,-3.2018 10.551,-6.0252 9.5254,-9.5851 17.2755,-20.7102 26.6587,-30.4514 4.7127,-4.8927 11.5105,-11.3014 9.4653,-17.8799 -1.4487,-4.6598 -5.339,-8.3805 -9.5622,-10.5316 -4.0933,-2.0849 -11.1142,2.2146 -13.066,-1.8201 -1.7797,-3.6786 3.1831,-7.1054 5.6231,-9.5742 4.7526,-4.8085 8.3684,-10.4377 12.8478,-15.5575 4.6465,-5.311 10.5584,-10.8337 11.3732,-17.9218 0.5722,-4.9774 -3.7306,-9.3627 -8.3447,-10.4105 0,0 -0.7537,0.1417 -0.7537,0.1417 z"
         id="Fill-22" />
      <path
         d="m 516.801,1157.441 c -12.4921,3.6766 -25.4882,7.7142 -35.26863,16.9186 -11.32283,10.656 -22.42571,30.296 -12.23137,42.8824 5.87661,7.2555 6.69669,17.8526 -6.36801,14.8168 -10.32838,-2.3999 -22.92476,-0.6367 -27.98149,-11.205 -6.3101,-13.1879 -22.06711,-13.0393 -31.33232,-22.5671 -10.83002,-11.137 -26.75351,-1.101 -40.5191,-2.1303 -13.63384,-1.0195 -18.72775,12.964 -27.79908,22.8866 -9.98666,10.9238 14.13162,33.3684 -5.02066,33.946 -35.51478,1.0711 -75.93712,-14.4721 -106.52991,3.6158 -11.02378,6.5178 -24.29075,-3.0236 -34.55143,4.3362 -10.43319,7.4835 -1.84163,25.2166 -21.07189,23.7368 -20.37097,-1.5675 -40.5007,2.3908 -60.88784,5.5042 -15.080347,2.3029 -29.42536,-5.1841 -44.460582,-5.9917 -17.499946,-0.94 -36.02722,-8.257 -52.615333,-2.4357 -14.6760138,5.1503 -9.1300993,20.2813 5.695819,21.2223 34.874424,2.2132 69.785525,3.1805 104.828326,0.814 32.45538,-2.1919 66.17522,-12.158 97.48643,-3.4159 10.60373,2.9606 9.87731,-12.5883 18.52248,-10.7923 9.85452,2.0472 18.45486,-1.8331 29.79464,7.8254 7.42223,6.3217 25.27899,5.2407 32.50895,-5.1661 6.11303,-8.7991 13.81067,-11.8551 29.67059,-18.1687 12.01672,-4.7838 40.04274,-1.0234 36.15109,-18.7017 -1.84885,-8.3987 -14.05894,-20.9394 3.37351,-25.4035 13.10443,-3.3557 30.41503,11.6566 21.19742,25.8468 -6.89131,10.6089 22.6133,33.0344 20.47442,18.4237 -1.39306,-9.516 0.92469,-33.7624 15.83839,-21.0544 8.30304,7.075 23.00216,18.4855 31.49358,9.4568 9.04651,-9.6189 21.07965,-10.6186 34.0817,-13.0709 17.75551,-3.3488 -10.13369,-27.0492 -1.62714,-31.3054 11.0545,-5.531 23.50782,-15.4532 36.32149,-14.5359 14.08967,1.0086 27.11245,10.6964 41.19913,10.0514 6.25894,-0.2866 19.70191,20.6957 8.62682,10.7628 -8.0919,-7.2574 -20.60144,0.8889 -9.3265,9.2871 10.5897,7.8879 23.44289,14.2386 36.50564,13.1197 14.56084,-1.2472 18.06619,-18.6146 18.03065,-30.3086 -0.0451,-14.8529 -12.19381,-25.0893 -22.35607,-34.4201 -17.09267,-15.6942 -40.20483,-20.2919 -62.35372,-25.5801 -6.51576,-1.5557 -13.07548,-0.7141 -19.5,0.8 z"
         id="Fill-24" />
      <path
         d="m 601.5,1270.543 c -1.66004,1.079 -3.589,1.6011 -5.54323,2.0632 -4.11689,0.9734 -7.91184,2.9219 -11.8852,4.3211 -2.26,0.7959 -4.61752,1.1989 -6.98192,1.6968 -3.00573,0.633 -5.70927,2.4099 -7.79246,4.6325 -0.89273,0.9525 -1.2986,2.2005 -1.25255,3.5669 0.065,1.9273 1.5814,3.3076 3.13996,4.2754 2.13179,1.3238 4.73622,1.406 7.16202,1.5145 7.23397,0.3238 14.53753,0.1297 21.66791,-1.133 4.11346,-0.7285 8.40757,-0.6893 12.37375,-2.0201 2.54428,-0.8536 4.61275,-2.6936 6.51766,-4.5178 1.53135,-1.4665 6.18754,-3.0008 4.59406,-4.3995 -1.80092,-1.5808 -3.99196,-2.9054 -5.05661,-5.1013 -1.17048,-2.4141 -3.55439,-3.951 -5.88039,-5.0668 -1.9564,-0.9385 -4.09132,-2.1642 -6.29362,-1.7912 -1.70446,0.2887 -3.31335,1.0486 -4.76938,1.9593 z"
         id="Fill-26" />
      <path
         d="m 1533.5,1274.641 c -6.9347,2.5227 -14.3933,3.1105 -21.3632,5.4368 -5.0361,1.6808 -8.8097,5.7041 -13.512,7.9545 -4.5595,2.182 -9.9414,3.0231 -13.2805,7.5099 -3.2282,4.3376 -1.2259,9.1064 2.5569,13.3301 3.2093,3.5834 7.6077,1.4285 11.3239,0.043 5.4654,-2.0378 11.9226,-2.0472 16.5962,-5.527 3.5093,-2.6128 4.1377,-7.1864 10.1077,-7.8049 7.8063,-0.8088 14.8076,-4.7013 22.5963,-5.8341 8.1194,-1.1809 18.5537,-2.1388 23.9401,4.2789 3.2377,3.8577 4.8952,7.2403 10.4203,10.3463 4.3189,2.428 9.1215,3.1092 14.0907,3.2251 7.0077,0.1633 16.0246,-1.7864 20.8283,3.6654 3.7922,4.3038 8.9384,-1.557 10.7325,-4.8353 2.2855,-4.1762 1.8778,-11.9293 -2.3554,-13.8316 -7.107,-3.1936 -15.1556,-2.4294 -22.7495,-3.385 -4.8561,-0.611 -8.915,-3.2938 -12.557,-6.6105 -3.4097,-3.1053 -7.8611,-4.6631 -12.0336,-6.4681 -10.8291,-4.6846 -23.1237,-6.7208 -34.6904,-4.6596 -3.6588,0.652 -7.1388,1.9955 -10.6513,3.1661 z"
         id="Fill-27" />
      <path
         d="m 1685,1286.043 c -18.355,-1.3505 -23.9571,26.4777 -3.6316,22.2011 14.9994,-3.1561 28.1366,-7.703 44.7579,-5.3409 19.0952,2.7138 62.8035,17.4655 61.4496,-1.8868 -1.8159,-25.9554 -40.9868,0.438 -57.1029,-5.1097 -14.5554,-5.0103 -29.6825,-10.1875 -45.473,-9.8637 z"
         id="Fill-28" />
      <path
         d="m 441.5,1289.641 c -19.5346,1.7153 -39.1574,2.1593 -58.7496,2.6726 -7.21827,0.1891 -12.82117,0.6324 -20.70526,3.1626 -9.55111,3.0652 -3.78871,15.3534 -10.04376,19.5513 -9.24745,6.2062 -21.01859,3.2298 -31.34934,2.4726 -23.46686,-1.7199 -46.97808,-0.4803 -70.3701,1.3523 -12.67475,0.993 -25.39508,1.8569 -37.96575,3.7468 -8.8129,1.325 -15.76614,15.3532 -6.60518,20.6995 8.40222,4.9035 18.06217,-1.0422 26.48701,-3.1645 7.74656,-1.9514 15.03148,-4.5736 23.16537,-5.8324 15.25226,-2.3603 30.67903,-2.7122 46.08425,-2.9426 26.7704,-0.4003 53.77129,-3.9245 80.3355,-0.5113 13.06416,1.6787 26.38086,0.2495 39.35331,2.3691 16.98407,2.775 34.22152,3.2977 51.38447,3.1857 7.1779,-0.047 17.18045,2.1619 21.33309,-4.9935 3.86607,-6.6617 -2.3587,-17.5486 -9.93212,-16.7113 -7.94006,0.8778 -15.87132,0.8664 -23.85918,0.432 -14.12637,-0.7683 -28.17557,2.0595 -42.25632,1.4666 -7.75139,-0.3265 -14.89841,-1.1435 -23.18058,0.4636 -6.74405,1.3086 -13.56401,-6.5126 -3.2465,-6.6611 11.36936,-0.1637 22.74207,-0.023 34.13776,-0.485 26.61679,-1.0801 53.1831,1.3479 79.79046,2.9491 14.42976,0.8683 29.12558,-0.2846 43.29336,2.5621 9.65412,1.9398 17.08279,-3.7594 16.27561,-15.1244 -0.80045,-11.2703 -12.65734,-8.3841 -20.33435,-7.8567 -14.37349,0.9874 -28.67656,-0.6471 -43.02491,-1.5159 -15.9563,-0.9662 -31.91345,-1.5933 -47.90128,-1.9397 -4.04362,-0.088 -8.12354,-0.062 -12.11596,0.6525 z"
         id="Fill-29" />
      <path
         d="m 2850.898,1291.641 c -4.4767,0.4096 -9.1326,0.5692 -13.2914,2.3169 -6.056,2.545 -12.3198,5.2559 -18.9127,5.5232 -2.5619,0.1038 -5.2186,0.4048 -7.3803,2.2937 -1.4663,1.2812 -1.2694,3.2828 -0.1735,4.8616 0.9644,1.3895 2.13,2.8471 3.9697,3.0599 4.546,0.5258 9.1404,0.2381 13.7033,0.1402 12.7367,-0.2735 25.5838,-0.1354 38.1477,-2.2628 2.1143,-0.358 4.5213,-0.133 6.317,-1.391 2.6122,-1.8301 2.5101,-5.5529 1.5682,-8.2961 -1.0207,-2.9727 -3.5316,-5.1639 -6.425,-6.3003 -3.308,-1.2992 -6.9426,-0.753 -10.3834,-0.5059 -2.3811,0.171 -4.7603,0.3673 -7.1396,0.5606 z"
         id="Fill-30" />
      <path
         d="m 2464,1296.242 c -1.8235,0.9227 -3.4227,2.2699 -4.8333,3.7328 -2.0134,2.0878 -2.676,5.294 -1.6749,8.0302 0.6915,1.8901 1.8455,3.6942 3.4766,4.8516 1.5975,1.1335 3.6703,1.0434 5.5326,1.0153 5.1192,-0.077 10.2591,-0.01 15.3514,-0.5667 3.1837,-0.3512 6.4896,-0.7342 9.3367,-2.3234 1.7129,-0.9562 2.7459,-2.8492 2.7767,-4.8019 0.033,-2.0958 -0.4173,-4.1944 -1.156,-6.1451 -0.7798,-2.0594 -3.0019,-3.0683 -5.0272,-3.389 -4.6407,-0.7347 -9.3515,-0.9816 -14.043,-0.9714 -3.077,0.01 -6.2167,-0.2455 -9.2317,0.4239 -0.1718,0.038 -0.343,0.082 -0.5079,0.1437 z"
         id="Fill-31" />
      <path
         d="m 2732.301,1296.84 c -2.962,1.5527 -6.1488,4.0645 -6.3356,7.6639 -0.1764,3.3995 2.5727,5.8706 4.8604,8.0363 1.2668,1.1993 2.9709,2.1081 4.771,1.734 4.5435,-0.9443 9.212,-0.9034 13.8308,-1.0604 10.1424,-0.3446 20.3118,0.2899 30.4361,-0.4161 2.4033,-0.1676 5.2264,-0.3276 6.7894,-2.491 2.4061,-3.3304 1.0813,-7.9746 -1.4412,-10.9219 -1.5458,-1.8061 -3.8494,-2.6776 -6.1808,-2.8802 -6.9052,-0.5997 -13.8484,-0.4577 -20.7727,-0.4614 -8.2701,-0 -16.6145,-0.5924 -24.8085,0.5713 -0.3855,0.055 -0.7833,0.079 -1.1489,0.2255 z"
         id="Fill-32" />
      <path
         d="m 2546.5,1305.641 c -6.9261,0.9845 -15.3991,0.7361 -20.2363,6.2421 -3.1185,3.5496 -2.444,10.5244 1.4157,12.48 3.4465,1.7463 7.6139,2.038 5.7734,7.5106 -1.3852,4.1185 -0.4559,5.6427 4.6488,7.7266 2.7283,1.1138 2.3374,4.7731 6.4061,5.7298 8.3547,1.9645 18.5191,0.014 25.1841,5.5021 3.6798,3.0298 1.376,9.0203 7.2245,11.3391 7.8329,3.1055 16.5345,1.7011 24.4374,-0.051 6.1162,-1.3564 14.185,-0.7915 17.9607,-6.2285 2.8635,-4.1235 1.6993,-12.3985 -4.081,-13.4482 -7.9729,-1.4477 -22.818,5.8566 -24.1597,-2.1384 -0.7206,-4.2943 8.1363,-3.4183 11.2888,-3.4276 21.6755,-0.064 43.3225,1.4987 64.9693,2.6319 5.1819,0.2713 10.0682,1.9241 15.2699,2.1405 5.7615,0.2396 11.8849,2.3011 17.3392,0.3495 5.2775,-1.8883 5.8881,-7.8534 1.1249,-11.4259 -4.21,-3.1576 -6.5038,-8.2253 -6.2909,-13.3066 0.2331,-5.5635 -4.477,-7.8096 -9.3769,-9.0246 -9.6243,-2.3864 -19.6082,-0.6834 -29.374,-0.3366 -11.423,0.4056 -23.6884,4.9552 -34.3117,0.6563 -4.6646,-1.8875 -9.5996,-1.4361 -14.5809,-1.3291 -6.3464,0.1363 -12.5532,-1.2655 -18.9111,-1.478 -13.889,-0.4644 -27.8404,-1.0064 -41.7203,-0.1136 z m 17,17.8 c -0.1538,5.5718 -13.7317,-0.066 -5.9509,-0.7396 1.9469,-0.1687 4.2691,-0.4419 5.9509,0.7396 z"
         id="Fill-33" />
      <path
         d="m 2357,1307.641 c -16.6009,0.9044 -33.0593,4.7137 -49.6735,4.2859 -3.7775,-0.097 -6.2669,2.5502 -8.2878,5.7698 -1.8938,3.0171 -0.7007,6.8684 3.2491,7.5173 2.7946,0.4591 4.1757,1.4145 6.7291,4.2659 2.462,2.7494 6.7233,1.8316 9.8485,1.1034 6.1071,-1.423 12.2696,-2.5867 18.5405,-3.0625 23.7262,-1.8002 47.5396,-1.3881 71.3147,-1.4574 2.3261,-0.01 5.212,1.4932 6.9784,-0.02 2.8639,-2.454 7.2348,-3.9663 8.3393,-7.6774 1.0166,-3.4162 -0.4085,-7.8574 -3.1962,-9.7183 -3.5059,-2.3404 -8.0078,-1.9954 -12.0221,-1.9951 -17.2758,0 -34.5551,0.3904 -51.82,0.9888 z"
         id="Fill-34" />
      <path
         d="m 1566.602,1313.242 c -11.4858,1.6177 -23.1976,1.0343 -34.7912,1.6062 -23.6189,1.1651 -47.7775,-0.7934 -70.8108,4.5928 -7.6102,1.7796 -17.2818,-1.5102 -23.102,3.7 -5.9856,5.3583 -4.0162,13.2851 3.4047,16.5594 2.2419,0.9892 3.871,3.4525 6.7891,2.4893 13.0027,-4.2914 26.9748,-4.3016 40.5154,-4.2751 22.0603,0.043 44.303,2.7965 66.2017,-0.084 10.8065,-1.4214 20.8154,-6.0176 31.8975,-6.4018 36.4361,-1.2631 72.916,-0.4138 109.2253,2.3606 6.6189,0.5057 16.9413,-3.1816 14.9663,-11.6487 -2.0859,-8.9427 -12.1766,-6.5036 -19.3542,-5.3061 -11.2111,1.8705 -22.5679,2.3263 -33.9655,1.6927 -16.187,-0.8997 -32.4391,0.3559 -48.5979,-0.7977 -11.2564,-0.8036 -22.845,0.2487 -33.8239,-2.637 -2.6905,-0.7072 -5.8158,-3.5929 -8.5545,-1.8509 z"
         id="Fill-35" />
      <path
         d="m 1536.699,1343.141 c -15.0339,0.814 -30.1055,0.8497 -45.1218,2.0964 -9.2995,0.7722 -18.5527,1.9185 -27.8145,3.1042 -4.1033,0.5253 -8.9508,-0.7528 -12.3373,1.7366 -3.0642,2.2525 -6.1538,5.2445 -7.0274,8.9648 -1.0243,4.362 3.2087,7.5145 6.8235,8.9688 6.1606,2.4785 12.8156,0.8022 19.1006,-0.081 3.9224,-0.5515 7.6519,-1.8788 11.5705,-2.6199 10.1036,-1.9107 20.4197,-2.3485 30.6637,-3.0087 10.0571,-0.6481 20.1389,-0.7721 30.2014,-0.4329 4.6984,0.1584 9.1821,-1.4235 13.2574,-3.809 2.857,-1.6724 5.5272,-5.3762 3.5511,-8.6246 -1.7346,-2.8512 -4.3215,-5.9394 -7.6408,-6.4434 -5.0207,-0.7624 -10.1787,0.041 -15.2264,0.1491 z"
         id="Fill-36" />
    </g>
  </g>
</svg>
